<?xml version="1.0" encoding="UTF-8" standalone="no"?>
<!-- Created with Inkscape (http://www.inkscape.org/) -->
<svg width="29.997454mm" height="7.9375mm" viewBox="0 0 29.997454 7.9375" version="1.1" id="svg5" sodipodi:docname="logo2.svg" inkscape:version="1.1.1 (c3084ef, 2021-09-22)" xmlns:inkscape="http://www.inkscape.org/namespaces/inkscape" xmlns:sodipodi="http://sodipodi.sourceforge.net/DTD/sodipodi-0.dtd" xmlns="http://www.w3.org/2000/svg" xmlns:svg="http://www.w3.org/2000/svg">
  <sodipodi:namedview id="namedview7" pagecolor="#ffffff" bordercolor="#666666" borderopacity="1.0" inkscape:pageshadow="2" inkscape:pageopacity="0.0" inkscape:pagecheckerboard="0" inkscape:document-units="mm" showgrid="false" inkscape:zoom="2.2696805" inkscape:cx="172.05064" inkscape:cy="120.28124" inkscape:window-width="1440" inkscape:window-height="900" inkscape:window-x="0" inkscape:window-y="0" inkscape:window-maximized="0" inkscape:current-layer="layer1" fit-margin-top="0" fit-margin-left="0" fit-margin-right="0" fit-margin-bottom="0"/>
  <defs id="defs2">
    <rect x="356.77438" y="299.86557" width="96.854393" height="32.831997" id="rect624"/>
    <rect x="193.20175" y="411.37344" width="60.533184" height="16.394403" id="rect19966"/>
    <rect x="318.30365" y="368.49576" width="70.369827" height="15.889961" id="rect15344"/>
    <rect x="313.25922" y="370.00909" width="81.215355" height="12.863302" id="rect9810"/>
    <rect x="130" y="420" width="54" height="61" id="rect3804"/>
  </defs>
  <g inkscape:label="Слой 1" inkscape:groupmode="layer" id="layer1" transform="translate(-85.206794,-66.98125)">
    <g id="g39" transform="matrix(0.26458333,0,0,0.26458333,78.961038,48.818305)">
      <path fill-rule="evenodd" clip-rule="evenodd" d="m 38.607007,98.647353 c 8.262,0 15,-6.738 15,-15 0,-8.262 -6.739,-15 -15,-15 -8.263,0 -15.001,6.738 -15.001,15 0,8.262 6.738,15 15.001,15 z" id="path29"/>
      <path fill-rule="evenodd" clip-rule="evenodd" fill="#ffce22" d="m 38.607007,96.788353 c 7.236,0 13.139,-5.904 13.139,-13.141 0,-7.237 -5.903,-13.139 -13.139,-13.139 -7.237,0 -13.139,5.903 -13.139,13.139 0,7.236 5.902,13.141 13.139,13.141 z" id="path31"/>
      <text xml:space="preserve" style="font-style:normal;font-weight:normal;font-size:24px;line-height:1.25;font-family:sans-serif;white-space:pre;inline-size:13.0029;fill:#000000;fill-opacity:1;stroke:none" x="14.067497" y="11.757908" id="text50"><tspan x="14.067497" y="11.757908" id="tspan3779">С</tspan></text>
      <g aria-label="С" transform="matrix(1.0977655,0,0,0.91094136,23.606007,68.647353)" id="text54" style="font-style:italic;font-variant:normal;font-weight:normal;font-stretch:normal;font-size:23.3577px;line-height:20;font-family:Arial;-inkscape-font-specification:'Arial Italic';fill:#000000;fill-opacity:1;stroke:none;stroke-width:0.875911">
        <g aria-label="1" transform="matrix(2.2851054,0,0,2.7537555,-291.23124,-1155.3867)" id="text3802" style="font-size:10.6667px;line-height:1.25;font-family:sans-serif;white-space:pre;shape-inside:url(#rect3804)">
          <path d="m 131.26563,425.34612 0.28125,-1.33333 q 1.9323,-0.84376 2.98959,-1.96355 h 0.91146 l -1.60938,7.68231 h -1.50521 l 1.10938,-5.29168 q -0.46875,0.30209 -1.08334,0.55209 -0.60937,0.25 -1.09375,0.35416 z" style="font-weight:bold;font-family:Arial;-inkscape-font-specification:'Arial Bold Italic'" id="path22146"/>
        </g>
        <g transform="matrix(1.1565932,0,0,1.3937978,-231.92012,-503.91199)" id="text15342" style="font-size:10.6667px;line-height:1.25;font-family:sans-serif;white-space:pre;shape-inside:url(#rect15344)"/>
      </g>
      <text xml:space="preserve" style="font-style:italic;font-stretch:condensed;font-size:40px;line-height:1.2;font-family:Arial;-inkscape-font-specification:'Arial Italic Condensed'" x="38.2132" y="-36.113575" id="text58"><tspan sodipodi:role="line" id="tspan56" x="38.2132" y="-36.113575"/></text>
    </g>
    <g aria-label="OBMEN" transform="matrix(0.47487794,0,0,0.47487794,-74.461323,-74.062711)" id="text622" style="font-size:10.6667px;line-height:1.25;white-space:pre;shape-inside:url(#rect624)">
      <path d="m 365.30471,305.72178 q 0,1.85417 -1.0625,2.94792 -1.0625,1.08855 -2.93751,1.08855 -1.8698,0 -2.9323,-1.08855 -1.0625,-1.09375 -1.0625,-2.94792 0,-1.8698 1.0625,-2.95314 1.0625,-1.08854 2.9323,-1.08854 1.86459,0 2.9323,1.08854 1.06771,1.08334 1.06771,2.95314 z m -2.65105,1.96354 q 0.29167,-0.35416 0.4323,-0.83333 0.14062,-0.48438 0.14062,-1.13542 0,-0.69792 -0.16146,-1.18751 -0.16145,-0.48958 -0.42187,-0.79167 -0.26563,-0.3125 -0.61459,-0.45312 -0.34375,-0.14063 -0.71875,-0.14063 -0.38021,0 -0.71875,0.13542 -0.33334,0.13542 -0.61459,0.44792 -0.26041,0.29167 -0.42708,0.80729 -0.16146,0.51042 -0.16146,1.18751 0,0.69271 0.15625,1.18229 0.16146,0.48438 0.42188,0.79167 0.26041,0.30729 0.60937,0.45313 0.34896,0.14583 0.73438,0.14583 0.38542,0 0.73438,-0.14583 0.34896,-0.15104 0.60937,-0.46355 z" style="font-weight:bold;-inkscape-font-specification:'sans-serif Bold'" id="path3654"/>
      <path d="m 373.46099,307.22178 q 0,0.5625 -0.22917,1.00521 -0.22396,0.44271 -0.61979,0.73438 -0.45834,0.34375 -1.01042,0.48958 -0.54688,0.14584 -1.39063,0.14584 h -3.38543 v -7.75523 h 3.01043 q 0.9375,0 1.36979,0.0625 0.43751,0.0625 0.86459,0.27604 0.44271,0.22396 0.65625,0.60417 0.21875,0.375 0.21875,0.85937 0,0.56251 -0.29687,0.9948 -0.29688,0.42708 -0.83855,0.66667 v 0.0417 q 0.76042,0.15104 1.20313,0.625 0.44792,0.47396 0.44792,1.25 z m -2.56251,-3.18751 q 0,-0.19271 -0.099,-0.38542 -0.0937,-0.19271 -0.33854,-0.28646 -0.21875,-0.0833 -0.54688,-0.0885 -0.32291,-0.0104 -0.91146,-0.0104 h -0.1875 v 1.64063 h 0.3125 q 0.47396,0 0.8073,-0.0156 0.33333,-0.0156 0.52604,-0.10417 0.27083,-0.11979 0.35417,-0.30729 0.0833,-0.19271 0.0833,-0.44271 z m 0.48959,3.15626 q 0,-0.36979 -0.14584,-0.56771 -0.14062,-0.20312 -0.48437,-0.30208 -0.23438,-0.0677 -0.64584,-0.0729 -0.41146,-0.005 -0.85938,-0.005 h -0.4375 v 1.9323 h 0.14584 q 0.84375,0 1.20833,-0.005 0.36459,-0.005 0.67188,-0.13542 0.3125,-0.13021 0.42708,-0.34375 0.1198,-0.21875 0.1198,-0.5 z" style="font-weight:bold;-inkscape-font-specification:'sans-serif Bold'" id="path3656"/>
      <path d="m 383.08081,309.59679 h -1.98959 v -5.19273 l -1.4375,3.36981 h -1.38022 l -1.4375,-3.36981 v 5.19273 h -1.88542 v -7.75523 h 2.32292 l 1.7448,3.89063 1.73959,-3.89063 h 2.32292 z" style="font-weight:bold;-inkscape-font-specification:'sans-serif Bold'" id="path3658"/>
      <path d="m 390.66417,309.59679 h -5.60939 v -7.75523 h 5.60939 v 1.5 h -3.6198 v 1.33855 h 3.35938 v 1.5 h -3.35938 v 1.91667 h 3.6198 z" style="font-weight:bold;-inkscape-font-specification:'sans-serif Bold'" id="path3660"/>
      <path d="m 399.39857,309.59679 h -1.92709 l -3.29167,-5.32293 v 5.32293 h -1.83334 v -7.75523 h 2.39063 l 2.82813,4.44272 v -4.44272 h 1.83334 z" style="font-weight:bold;-inkscape-font-specification:'sans-serif Bold'" id="path3662"/>
    </g>
  </g>
</svg>