<?xml version="1.0" encoding="UTF-8"?>
<!DOCTYPE svg PUBLIC "-//W3C//DTD SVG 1.1//EN" "http://www.w3.org/Graphics/SVG/1.1/DTD/svg11.dtd">
<!-- Creator: CorelDRAW -->
<svg xmlns="http://www.w3.org/2000/svg" xml:space="preserve" width="16.9333mm" height="17.5044mm" style="shape-rendering:geometricPrecision; text-rendering:geometricPrecision; image-rendering:optimizeQuality; fill-rule:evenodd; clip-rule:evenodd" viewBox="0 0 1.49911 1.54967" xmlns:xlink="http://www.w3.org/1999/xlink">
 <defs>
  <style type="text/css">
   <![CDATA[
    .fil0 {fill:darkorange;fill-rule:nonzero}
   ]]>
  </style>
 </defs>
 <g id="Слой_x0020_1">
  <metadata id="CorelCorpID_0Corel-Layer"/>
  <path class="fil0" d="M1.03903 1.08858c-0.013855,0 -0.0254081,0.00483375 -0.0325083,0.0136071 -0.0182106,0.0224424 -0.0100216,0.0619445 0.0178565,0.086308 0.012164,0.0106236 0.029693,0.0169801 0.0468944,0.0169801 0.0175201,0 0.0321364,-0.00656894 0.0411577,-0.0184939 0.0162187,-0.0217341 0.00688764,-0.0525515 -0.0237615,-0.0784731 -0.0151829,-0.0128369 -0.0328093,-0.0199281 -0.0496388,-0.0199281zm0.152803 -0.11277c-0.013554,-0.0039573 -0.0236907,-0.00100924 -0.0286838,0.00813592 -0.00757818,0.0138284 -0.00198307,0.0411931 0.0132972,0.0650342 0.0154751,0.024151 0.0286041,0.0363947 0.0390595,0.0363947 0.00360318,0 0.00682567,-0.00151387 0.00933993,-0.00436454 0.00580758,-0.00667517 0.00772868,-0.0206541 0.00528525,-0.0383424 -0.00245228,-0.018069 -0.0135451,-0.0552517 -0.0382981,-0.066858zm0.302711 0.547842c0.0140143,0.0173608 -0.00729488,0.0349783 -0.023186,0.020902 -0.158628,-0.140515 -0.292052,-0.180318 -0.424006,-0.185834 -0.0700362,-0.00292149 -0.139647,0.00378909 -0.212419,0.0102164 -0.0145366,0.00128369 -0.0291884,0.00255852 -0.0440172,0.00373597 -0.00647155,0.000522328 -0.0129874,0.00100924 -0.0195032,0.00148731 -0.0256649,0.00277099 -0.0516573,0.00424059 -0.0780305,0.00424059 -0.124164,0 -0.241324,-0.0304278 -0.348269,-0.0904689 -0.107334,-0.0602093 -0.192633,-0.144304 -0.253524,-0.249965 -0.0607848,-0.105422 -0.0915933,-0.221918 -0.0915933,-0.346259 0,-0.124208 0.0307819,-0.2412 0.0914693,-0.347711 0.0608113,-0.106679 0.145145,-0.191606 0.250647,-0.252408 0.105501,-0.0607671 0.220582,-0.0915844 0.342063,-0.0915844 0.126873,0 0.245459,0.0304367 0.352465,0.0904866 0.107307,0.0602093 0.192863,0.144561 0.254329,0.250735 0.0613425,0.10605 0.0924432,0.222848 0.0924432,0.347162 0,0.0479833 -0.00465668,0.0948423 -0.013793,0.140418 -0.0011686,0.0066132 -0.00286838,0.014634 -0.00525869,0.023974 -0.00178831,0.00747194 -0.00369171,0.0149262 -0.0057279,0.0223362l-0.000566593 -0.000318708c-0.0122968,0.0393428 -0.035173,0.0950371 -0.077756,0.166543 -0.00459471,0.00752506 -0.00712668,0.00179716 -0.00771983,-0.00240802 -0.0149085,-0.105183 -0.0609973,-0.185046 -0.142241,-0.236632 -0.00132795,-0.000849889 -0.00270017,-0.00166437 -0.00405468,-0.0024877 -0.0133149,-0.00818904 -0.0275329,-0.0156344 -0.0427069,-0.0223362 -0.0193615,-0.00852545 -0.0402458,-0.0158823 -0.0627059,-0.0219466 -0.0137753,-0.00370056 -0.0444864,-0.00210702 -0.0333404,-0.0131556 0.00458586,-0.00455045 0.0711074,-0.0055951 0.147571,-0.000752506 0.00148731,9.73831e-005 0.00297461,0.000185913 0.00447077,0.000283296 0.00141648,-0.0160328 0.00214243,-0.032464 0.00214243,-0.049329 0,-0.131228 -0.0434417,-0.238235 -0.132804,-0.327092 -0.089442,-0.0889197 -0.194014,-0.132167 -0.319718,-0.132167 -0.128714,0 -0.233091,0.0432912 -0.319063,0.132344 -0.0864408,0.089504 -0.12844,0.195607 -0.12844,0.324374 0,0.128493 0.0431939,0.234144 0.13206,0.323002 0.0888665,0.0888577 0.19204,0.132069 0.315442,0.132069 0.00592267,0 0.0117657,-0.00017706 0.0176086,-0.000362974 -0.000132795,-0.00149616 -0.000230178,-0.00299232 -0.000354121,-0.00446192 -0.00710012,-0.0905929 -0.00859628,-0.165861 0.0100216,-0.135495 0.00656894,0.0107387 0.0131202,0.0208754 0.019636,0.0306403 0.0243369,0.036377 0.0484171,0.0663091 0.0723911,0.0911329 0.00120401,0.00124827 0.00240802,0.00245228 0.00362974,0.003674 0.0877157,0.0890348 0.174059,0.110946 0.265856,0.133468 0.00195652,0.000495769 0.00390418,0.000973831 0.00586069,0.00144304 0.0150236,0.00370941 0.0301976,0.00745424 0.0455576,0.011562 0.109105,0.0291176 0.227248,0.0760474 0.365134,0.246946z"/>
 </g>
</svg>